<?xml version="1.0" encoding="UTF-8"?>
<svg id="Layer_2" data-name="Layer 2" xmlns="http://www.w3.org/2000/svg" viewBox="0 0 210.37 210.37">
  <defs>
    <style>
      .cls-1 {
        fill: #e6c705;
      }
    </style>
  </defs>
  <g id="Layer_1-2" data-name="Layer 1">
    <g>
      <circle class="cls-1" cx="105.19" cy="105.19" r="52.34" transform="translate(-17.92 21.68) rotate(-10.85)"/>
      <path class="cls-1" d="m99.62,29.16c0,3.08,2.49,5.57,5.57,5.57s5.57-2.49,5.57-5.57V5.57c0-3.08-2.49-5.57-5.57-5.57s-5.57,2.49-5.57,5.57v23.59Z"/>
      <path class="cls-1" d="m99.62,181.21v23.59c0,3.08,2.49,5.57,5.57,5.57s5.57-2.49,5.57-5.57v-23.59c0-3.08-2.49-5.57-5.57-5.57s-5.57,2.49-5.57,5.57Z"/>
      <path class="cls-1" d="m67.18,44.92c.94,0,1.9-.24,2.78-.75,2.66-1.54,3.58-4.94,2.04-7.61l-11.8-20.43c-1.54-2.66-4.95-3.58-7.61-2.04-2.66,1.54-3.58,4.94-2.04,7.61l11.8,20.43c1.03,1.79,2.9,2.79,4.83,2.79Z"/>
      <path class="cls-1" d="m140.41,166.2c-2.66,1.54-3.58,4.94-2.04,7.61l11.8,20.43c1.03,1.79,2.9,2.79,4.83,2.79.94,0,1.9-.24,2.78-.75,2.66-1.54,3.58-4.94,2.04-7.61l-11.8-20.43c-1.54-2.66-4.94-3.58-7.61-2.04Z"/>
      <path class="cls-1" d="m14.09,52.59c-1.54,2.66-.62,6.07,2.04,7.61l20.43,11.8c.88.51,1.83.75,2.78.75,1.92,0,3.8-1,4.83-2.79,1.54-2.66.62-6.07-2.04-7.61l-20.43-11.8c-2.66-1.54-6.07-.63-7.61,2.04Z"/>
      <path class="cls-1" d="m194.24,150.17l-20.43-11.8c-2.66-1.54-6.07-.63-7.61,2.04-1.54,2.66-.62,6.07,2.04,7.61l20.43,11.8c.88.51,1.83.75,2.78.75,1.92,0,3.8-1,4.83-2.79,1.54-2.66.62-6.07-2.04-7.61Z"/>
      <path class="cls-1" d="m34.73,105.19c0-3.08-2.49-5.57-5.57-5.57H5.57c-3.08,0-5.57,2.49-5.57,5.57s2.49,5.57,5.57,5.57h23.59c3.08,0,5.57-2.49,5.57-5.57Z"/>
      <path class="cls-1" d="m204.8,99.62h-23.59c-3.08,0-5.57,2.49-5.57,5.57s2.49,5.57,5.57,5.57h23.59c3.08,0,5.57-2.49,5.57-5.57s-2.49-5.57-5.57-5.57Z"/>
      <path class="cls-1" d="m36.56,138.38l-20.43,11.8c-2.66,1.54-3.58,4.94-2.04,7.61,1.03,1.79,2.9,2.79,4.83,2.79.94,0,1.9-.24,2.78-.75l20.43-11.8c2.66-1.54,3.58-4.94,2.04-7.61-1.54-2.66-4.95-3.58-7.61-2.04Z"/>
      <path class="cls-1" d="m188.67,50.55l-20.43,11.8c-2.66,1.54-3.58,4.94-2.04,7.61,1.03,1.79,2.9,2.79,4.83,2.79.95,0,1.9-.24,2.78-.75l20.43-11.8c2.66-1.54,3.58-4.94,2.04-7.61-1.54-2.66-4.95-3.58-7.61-2.04Z"/>
      <path class="cls-1" d="m62.35,168.24l-11.8,20.43c-1.54,2.66-.62,6.07,2.04,7.61.88.51,1.83.75,2.78.75,1.92,0,3.8-1,4.83-2.79l11.8-20.43c1.54-2.66.63-6.07-2.04-7.61-2.66-1.54-6.07-.63-7.61,2.04Z"/>
      <path class="cls-1" d="m140.41,44.17c.88.51,1.83.75,2.78.75,1.92,0,3.8-1,4.83-2.79l11.8-20.43c1.54-2.66.63-6.07-2.04-7.61-2.66-1.54-6.07-.63-7.61,2.04l-11.8,20.43c-1.54,2.66-.63,6.07,2.04,7.61Z"/>
    </g>
  </g>
</svg>