<?xml version="1.0" encoding="UTF-8"?>
<svg id="Layer_2" data-name="Layer 2" xmlns="http://www.w3.org/2000/svg" viewBox="0 0 221.03 141.87">
  <defs>
    <style>
      .cls-1 {
        fill: #44c2e4;
      }

      .cls-2 {
        fill: #3591a6;
      }
    </style>
  </defs>
  <g id="Layer_1-2" data-name="Layer 1">
    <path class="cls-1" d="m81.79,89.37c0-21.9,19.81-39.71,44.15-39.71,5.26,0,10.36.81,15.21,2.42,5.03-5.15,11.56-8.86,18.78-10.77-6.43-13-19.89-21.62-34.74-21.62-3.16,0-6.3.38-9.35,1.14-2.25.56-4.61-.34-5.93-2.25C101.9,6.95,88.7,0,74.6,0c-10.72,0-20.98,3.98-28.88,11.21-7.86,7.18-12.74,16.95-13.75,27.49-.19,1.95-1.38,3.66-3.15,4.5-.52.25-1.03.51-1.54.79-.46.26-.96.45-1.48.56-7.21,1.61-13.76,5.66-18.45,11.41-4.81,5.91-7.36,13.06-7.36,20.68,0,18.14,14.84,32.89,33.08,32.89h39.72c1.1-6.77,4.19-13.14,9.02-18.47-.03-.57-.04-1.14-.04-1.7Z"/>
    <path class="cls-2" d="m201.95,90.3c-2.89-1.05-4.39-4.24-3.34-7.13.86-2.38,1.29-4.85,1.29-7.36,0-10.57-7.71-19.61-18.53-23.18-3.19-1.05-6.64-1.63-10.25-1.63-1.89,0-3.75.17-5.57.47-7.43,1.26-14.06,5.02-18.37,10.59-1.56,2.01-4.27,2.71-6.6,1.7-4.58-1.97-9.51-2.97-14.65-2.97-18.2,0-33.01,12.82-33.01,28.57,0,1.01.06,2.05.19,3.07.22,1.74-.4,3.48-1.67,4.7-3.68,3.54-6.17,7.82-7.29,12.4-.44,1.8-.67,3.65-.67,5.52s.24,3.81.69,5.62c3,12.1,15.46,21.2,30.34,21.2h75.47c17.11,0,31.04-12.03,31.04-26.82,0-10.84-7.49-20.56-19.08-24.75Z"/>
  </g>
</svg>