<?xml version="1.0" encoding="UTF-8"?>
<svg id="Layer_2" data-name="Layer 2" xmlns="http://www.w3.org/2000/svg" viewBox="0 0 323.54 211.06">
  <defs>
    <style>
      .cls-1 {
        fill: #fff;
      }

      .cls-2 {
        opacity: .1;
      }

      .cls-2, .cls-3 {
        fill: #414042;
      }

      .cls-4 {
        fill: #fbb040;
      }

      .cls-5 {
        fill: #4bbfe8;
      }
    </style>
  </defs>
  <g id="BACKGROUND_2" data-name="BACKGROUND 2">
    <g>
      <polygon class="cls-4" points="124.39 157.95 117.27 157.95 113.45 171.31 121.1 171.31 116.33 189.96 130.29 166.2 122.03 166.2 124.39 157.95"/>
      <polygon class="cls-4" points="54.56 179.04 47.44 179.04 43.62 192.4 51.27 192.4 46.5 211.06 60.46 187.3 52.2 187.3 54.56 179.04"/>
      <polygon class="cls-4" points="274.82 178.33 267.7 178.33 263.88 191.69 271.53 191.69 266.76 210.35 280.72 186.59 272.46 186.59 274.82 178.33"/>
      <polygon class="cls-4" points="148.06 166.75 138.98 166.75 134.12 183.78 143.87 183.78 137.78 207.56 155.58 177.27 145.05 177.27 148.06 166.75"/>
      <polygon class="cls-4" points="174.9 157.95 167.78 157.95 163.96 171.31 171.61 171.31 166.84 189.96 180.8 166.2 172.54 166.2 174.9 157.95"/>
      <polygon class="cls-4" points="198.57 166.75 189.49 166.75 184.63 183.78 194.38 183.78 188.29 207.56 206.09 177.27 195.57 177.27 198.57 166.75"/>
    </g>
    <g>
      <g>
        <path class="cls-5" d="m310.01,85.8c-2.86-5.87-8.88-9.91-15.84-9.91-2.33,0-4.55.46-6.58,1.27-3.23-4.04-8.2-6.63-13.77-6.63-4.79,0-9.11,1.92-12.29,5.01,11.56,8.45,19.45,21.37,21.39,36.1h37.24c2.12-2.73,3.38-6.16,3.38-9.89,0-8.03-5.85-14.69-13.52-15.96Z"/>
        <path class="cls-5" d="m137.59,23.85c15.4,0,29.89,6.06,40.63,16.82,4.98-1.38,10.12-2.08,15.35-2.08,11.28,0,21.94,3.21,30.98,8.98.05-.63.08-1.26.08-1.9,0-11.75-8.56-21.49-19.78-23.34-4.18-8.58-12.99-14.49-23.18-14.49-3.4,0-6.65.67-9.63,1.86-4.72-5.91-11.99-9.7-20.15-9.7-12.88,0-23.56,9.45-25.47,21.8-7.63.62-14.3,4.56-18.61,10.37,8.93-5.41,19.22-8.32,29.78-8.32Z"/>
        <path class="cls-5" d="m51.48,83.1c8.26-8.91,19-14.9,30.74-17.28,1.69-6.01,4.35-11.7,7.86-16.85-2.65-.88-5.48-1.38-8.43-1.38-3.52,0-6.88.69-9.96,1.93-4.89-6.12-12.41-10.04-20.84-10.04-13.33,0-24.38,9.78-26.35,22.56-13.71,1.11-24.49,12.58-24.49,26.57,0,4.76,1.25,9.23,3.44,13.1h36.47c2.6-6.82,6.49-13.15,11.56-18.62Z"/>
      </g>
      <g>
        <path class="cls-1" d="m265.05,145.98c5.83-7.52,9.3-16.96,9.3-27.21,0-22.09-16.09-40.41-37.19-43.89-7.87-16.13-24.42-27.25-43.58-27.25-6.4,0-12.51,1.25-18.1,3.51-8.88-11.12-22.54-18.25-37.88-18.25-24.22,0-44.29,17.77-47.89,40.99-24.91,2.02-44.51,22.86-44.51,48.29,0,8.65,2.28,16.77,6.26,23.81h213.59Z"/>
        <g>
          <g>
            <circle class="cls-3" cx="121.62" cy="99.51" r="8.5" transform="translate(-2.45 3.07) rotate(-1.43)"/>
            <circle class="cls-3" cx="197.92" cy="99.51" r="8.5" transform="translate(92.64 294.42) rotate(-88.32)"/>
          </g>
          <path class="cls-3" d="m171.03,126.91c-.68,0-1.23-.55-1.23-1.23,0-5.53-4.5-10.03-10.03-10.03s-10.03,4.5-10.03,10.03c0,.68-.55,1.23-1.23,1.23s-1.23-.55-1.23-1.23c0-6.88,5.6-12.48,12.49-12.48s12.48,5.6,12.48,12.48c0,.68-.55,1.23-1.23,1.23Z"/>
        </g>
        <path class="cls-2" d="m274.35,118.77c0-4.39-.65-8.62-1.83-12.63-26.35,16.51-107.38,55.2-224.7.26-1.7,4.94-2.63,10.25-2.63,15.77,0,8.65,2.28,16.77,6.26,23.81h213.59c5.83-7.52,9.3-16.96,9.3-27.21Z"/>
      </g>
    </g>
  </g>
</svg>