<?xml version="1.0" encoding="UTF-8"?>
<svg id="Layer_2" data-name="Layer 2" xmlns="http://www.w3.org/2000/svg" viewBox="0 0 190.83 192.29">
  <defs>
    <style>
      .cls-1 {
        fill: #44c2e4;
      }
    </style>
  </defs>
  <g id="Layer_1-2" data-name="Layer 1">
    <path class="cls-1" d="m174.99,53.68c-.95-.72-1.64-1.74-1.98-2.88-5.09-17.6-21.46-29.9-39.81-29.9-3.38,0-6.75.41-10.01,1.22-2.25.56-4.61-.34-5.93-2.25C108.7,7.43,94.59,0,79.51,0c-11.46,0-22.43,4.26-30.88,11.98-8.4,7.68-13.62,18.12-14.7,29.4-.19,1.95-1.38,3.66-3.15,4.5-.55.26-1.11.55-1.65.85-.46.26-.96.45-1.48.56-7.73,1.72-14.75,6.07-19.77,12.23-5.16,6.33-7.88,14-7.88,22.16,0,19.44,15.9,35.25,35.45,35.25h118.01c19.55,0,35.45-15.81,35.45-35.25,0-11.06-5.07-21.27-13.92-28Z"/>
    <path class="cls-1" d="m173.5,140.93c0-3.08-2.49-5.57-5.57-5.57H21.66c-3.08,0-5.57,2.49-5.57,5.57s2.49,5.57,5.57,5.57h146.27c3.08,0,5.57-2.49,5.57-5.57Z"/>
    <path class="cls-1" d="m159.87,181.15H13.6c-3.08,0-5.57,2.49-5.57,5.57s2.49,5.57,5.57,5.57h146.27c3.08,0,5.57-2.49,5.57-5.57s-2.49-5.57-5.57-5.57Z"/>
    <path class="cls-1" d="m46.72,158.56c-3.08,0-5.57,2.49-5.57,5.57s2.49,5.57,5.57,5.57h53.61c3.08,0,5.57-2.49,5.57-5.57s-2.49-5.57-5.57-5.57h-53.61Z"/>
    <path class="cls-1" d="m185.26,158.56h-53.61c-3.08,0-5.57,2.49-5.57,5.57s2.49,5.57,5.57,5.57h53.61c3.08,0,5.57-2.49,5.57-5.57s-2.49-5.57-5.57-5.57Z"/>
  </g>
</svg>