<?xml version="1.0" encoding="UTF-8"?>
<svg id="Layer_2" data-name="Layer 2" xmlns="http://www.w3.org/2000/svg" viewBox="0 0 188.91 193.98">
  <defs>
    <style>
      .cls-1 {
        fill: #44c2e4;
      }

      .cls-2 {
        fill: #3591a6;
      }
    </style>
  </defs>
  <g id="Layer_1-2" data-name="Layer 1">
    <g>
      <path class="cls-2" d="m188.91,81.68c0-11.06-5.07-21.27-13.92-28-.95-.72-1.64-1.74-1.98-2.88-5.09-17.6-21.46-29.9-39.81-29.9-3.38,0-6.75.41-10.01,1.22-2.25.56-4.61-.34-5.93-2.25C108.7,7.43,94.59,0,79.51,0c-11.46,0-22.43,4.26-30.88,11.98-8.4,7.68-13.62,18.12-14.7,29.39-.19,1.95-1.38,3.66-3.15,4.5-.55.26-1.11.55-1.65.85-.46.26-.96.45-1.48.56-7.73,1.72-14.75,6.07-19.77,12.23-5.16,6.33-7.88,14-7.88,22.16,0,19.44,15.9,35.25,35.45,35.25h118.01c19.55,0,35.45-15.81,35.45-35.25Z"/>
      <path class="cls-1" d="m50.01,167.59c.54,0,1.09-.08,1.63-.25,2.94-.9,4.59-4.02,3.69-6.96l-6.71-21.88c-.9-2.94-4.02-4.59-6.96-3.69-2.94.9-4.59,4.02-3.69,6.96l6.71,21.88c.73,2.4,2.94,3.94,5.32,3.94Z"/>
      <path class="cls-1" d="m80.57,193.98c.54,0,1.09-.08,1.63-.25,2.94-.9,4.59-4.02,3.69-6.96l-6.71-21.88c-.9-2.94-4.02-4.59-6.96-3.69-2.94.9-4.59,4.02-3.69,6.96l6.71,21.88c.73,2.4,2.94,3.94,5.32,3.94Z"/>
      <path class="cls-1" d="m119.42,159.8c-2.94.9-4.59,4.02-3.69,6.96l6.71,21.88c.73,2.4,2.94,3.94,5.32,3.94.54,0,1.09-.08,1.63-.25,2.94-.9,4.59-4.02,3.69-6.96l-6.71-21.88c-.9-2.94-4.02-4.6-6.96-3.69Z"/>
      <path class="cls-1" d="m96.65,167.59c.54,0,1.09-.08,1.63-.25,2.94-.9,4.59-4.02,3.69-6.96l-6.71-21.88c-.9-2.94-4.02-4.59-6.96-3.69-2.94.9-4.59,4.02-3.69,6.96l6.71,21.88c.73,2.4,2.94,3.94,5.32,3.94Z"/>
      <path class="cls-1" d="m143.29,167.59c.54,0,1.09-.08,1.63-.25,2.94-.9,4.59-4.02,3.69-6.96l-6.71-21.88c-.9-2.94-4.02-4.59-6.96-3.69-2.94.9-4.59,4.02-3.69,6.96l6.71,21.88c.73,2.4,2.94,3.94,5.32,3.94Z"/>
    </g>
  </g>
</svg>