<?xml version="1.0" encoding="UTF-8"?>
<svg id="Layer_2" data-name="Layer 2" xmlns="http://www.w3.org/2000/svg" viewBox="0 0 188.91 177.51">
  <defs>
    <style>
      .cls-1 {
        fill: #44c2e4;
      }
    </style>
  </defs>
  <g id="Layer_1-2" data-name="Layer 1">
    <path class="cls-1" d="m174.99,53.68c-.95-.72-1.64-1.74-1.98-2.88-5.09-17.6-21.46-29.9-39.81-29.9-3.38,0-6.75.41-10.01,1.22-2.25.56-4.61-.34-5.93-2.25C108.7,7.43,94.59,0,79.51,0c-11.46,0-22.43,4.26-30.88,11.98-8.4,7.68-13.62,18.12-14.7,29.4-.19,1.95-1.38,3.66-3.15,4.5-.55.26-1.11.55-1.65.85-.46.26-.96.45-1.48.56-7.73,1.72-14.75,6.07-19.77,12.23-5.16,6.33-7.88,14-7.88,22.16,0,19.44,15.9,35.25,35.45,35.25h118.01c19.55,0,35.45-15.81,35.45-35.25,0-11.06-5.07-21.27-13.92-28Z"/>
    <path class="cls-1" d="m31.71,140.14c-2.75,0-4.97,2.23-4.97,4.97v7.66l-8.14-2.21c-2.65-.72-5.38.85-6.1,3.5-.72,2.65.85,5.38,3.5,6.1l7.83,2.12-4.74,7.3c-1.49,2.3-.84,5.38,1.46,6.88.84.54,1.77.8,2.7.8,1.63,0,3.22-.8,4.18-2.27l4.35-6.7,4.71,7.01c.96,1.43,2.53,2.2,4.13,2.2.95,0,1.92-.27,2.77-.85,2.28-1.53,2.89-4.62,1.35-6.9l-5.04-7.51,7.72-2.09c2.65-.72,4.22-3.45,3.5-6.1-.72-2.65-3.45-4.22-6.1-3.5l-8.14,2.21v-7.66c0-2.75-2.23-4.97-4.97-4.97Z"/>
    <path class="cls-1" d="m94.45,140.14c-2.75,0-4.97,2.23-4.97,4.97v7.66l-8.14-2.21c-2.65-.72-5.38.85-6.1,3.5-.72,2.65.85,5.38,3.5,6.1l7.83,2.12-4.74,7.3c-1.49,2.3-.84,5.38,1.46,6.88.84.54,1.77.8,2.7.8,1.63,0,3.22-.8,4.18-2.27l4.35-6.7,4.71,7.01c.96,1.43,2.53,2.2,4.13,2.2.95,0,1.92-.27,2.77-.85,2.28-1.53,2.89-4.62,1.35-6.9l-5.04-7.51,7.72-2.09c2.65-.72,4.22-3.45,3.5-6.1-.72-2.65-3.45-4.22-6.1-3.5l-8.14,2.21v-7.66c0-2.75-2.23-4.97-4.97-4.97Z"/>
    <path class="cls-1" d="m157.2,140.14c-2.75,0-4.97,2.23-4.97,4.97v7.66l-8.14-2.21c-2.65-.72-5.38.85-6.1,3.5-.72,2.65.85,5.38,3.5,6.1l7.83,2.12-4.74,7.3c-1.49,2.3-.84,5.38,1.46,6.88.84.54,1.77.8,2.7.8,1.63,0,3.22-.8,4.18-2.27l4.35-6.7,4.71,7.01c.96,1.43,2.53,2.2,4.13,2.2.95,0,1.92-.27,2.77-.85,2.28-1.53,2.89-4.62,1.35-6.9l-5.04-7.51,7.72-2.09c2.65-.72,4.22-3.45,3.5-6.1-.72-2.65-3.45-4.22-6.1-3.5l-8.14,2.21v-7.66c0-2.75-2.23-4.97-4.97-4.97Z"/>
  </g>
</svg>